<?xml version="1.0" encoding="UTF-8"?>
<svg id="_レイヤー_2" data-name="レイヤー 2" xmlns="http://www.w3.org/2000/svg" viewBox="0 0 42.9 41.54">
  <defs>
    <style>
      .cls-1 {
        fill: #007571;
      }
    </style>
  </defs>
  <g id="_レイヤー_4" data-name="レイヤー 4">
    <path class="cls-1" d="M42.9,31.82c-.64.8-1.28,1.58-1.92,2.34-.64.76-1.08,1.66-1.32,2.7-1.04.24-1.98.2-2.82-.12-.84-.32-1.66-.76-2.46-1.32-1.92-1.36-3.8-2.52-5.64-3.48-.8.08-1.28.56-1.44,1.44-.08.56-.04,1.12.12,1.68.16.56.12,1.16-.12,1.8-.08.48-.2.92-.36,1.32-.16.4-.32.8-.48,1.2-.56.32-1.12.66-1.68,1.02-.56.36-1.12.74-1.68,1.14-.8-.24-1.52-.54-2.16-.9-.64-.36-1.4-.38-2.28-.06-.4-.48-.58-1-.54-1.56.04-.56-.02-1.12-.18-1.68-.08-.56-.12-1.14-.12-1.74s-.2-1.18-.6-1.74c-.32-.4-.52-.86-.6-1.38-.08-.52-.2-1.02-.36-1.5-1.28.16-2.48.4-3.6.72-1.12.32-2.48.92-4.08,1.8-.96.48-1.94.88-2.94,1.2-1,.32-2.06.56-3.18.72-.16,0-.38-.02-.66-.06-.28-.04-.54-.06-.78-.06-.56-1.36-.88-2.26-.96-2.7-.08-.44-.08-1.38,0-2.82.48-.24.98-.48,1.5-.72.52-.24,1.02-.52,1.5-.84.4-.4.74-.8,1.02-1.2.28-.4.58-.72.9-.96,1.04-.72,2.1-1.26,3.18-1.62,1.08-.36,1.98-.98,2.7-1.86.16-.48.14-.88-.06-1.2-.2-.32-.5-.6-.9-.84-1.44-1.12-2.88-2.24-4.32-3.36-1.44-1.12-3.04-2.08-4.8-2.88-.08-.16-.16-.36-.24-.6.32-1.28.88-2.44,1.68-3.48.8-1.04,1.4-2.16,1.8-3.36.56-.4,1.02-.5,1.38-.3.36.2.66.38.9.54.8.56,1.4,1.12,1.8,1.68.88.88,1.78,1.74,2.7,2.58.92.84,2.06,1.38,3.42,1.62.4.08.7.3.9.66.2.36.54.5,1.02.42.56-.32.88-.76.96-1.32.16-.4.28-.84.36-1.32.08-.48.12-.96.12-1.44,0-1.6.16-3.18.48-4.74.32-1.56.68-3.18,1.08-4.86.96-.32,1.94-.44,2.94-.36,1,.08,2.02.12,3.06.12.48.32.94.64,1.38.96.44.32.86.68,1.26,1.08,0,.96-.04,1.9-.12,2.82-.08.92.12,1.82.6,2.7.32.4.42.84.3,1.32-.12.48-.22.92-.3,1.32-.16.88.28,1.52,1.32,1.92,1.52-.48,2.96-1.14,4.32-1.98,1.36-.84,2.76-1.58,4.2-2.22.56.16.96.46,1.2.9.24.44.52.78.84,1.02.4.32.76.66,1.08,1.02.32.36.64.74.96,1.14-.72.64-1.38,1.3-1.98,1.98-.6.68-1.26,1.3-1.98,1.86-.8.64-1.64,1.34-2.52,2.1-.88.76-1.68,1.54-2.4,2.34-.32.48-.76.84-1.32,1.08-.56.24-.92.68-1.08,1.32.4.56.86.86,1.38.9.52.04.98.22,1.38.54.48.24.98.5,1.5.78.52.28,1.02.62,1.5,1.02.4.4.84.7,1.32.9.48.2,1.04.26,1.68.18.32.32.66.62,1.02.9.36.28.74.62,1.14,1.02.16.4.34.84.54,1.32.2.48.38.96.54,1.44Z"/>
  </g>
</svg>