<?xml version="1.0" encoding="UTF-8"?>
<svg id="_レイヤー_2" data-name="レイヤー 2" xmlns="http://www.w3.org/2000/svg" viewBox="0 0 795.68 102.91">
  <defs>
    <style>
      .cls-1 {
        fill: #007571;
      }
    </style>
  </defs>
  <g id="_レイヤー_4" data-name="レイヤー 4">
    <g>
      <path class="cls-1" d="M61.53,26.11c.08.64.02,1.26-.18,1.86-.2.6-.42,1.18-.66,1.74-.48,0-.88.04-1.2.12-.32.16-.42.44-.3.84.12.4.06.76-.18,1.08-.16.32-.32.68-.48,1.08-.16.4-.32.72-.48.96-.08.56.06,1,.42,1.32.36.32.54.72.54,1.2.08.32.06.62-.06.9-.12.28-.26.58-.42.9-.16.32-.34.6-.54.84-.2.24-.38.52-.54.84-.24.4-.5.84-.78,1.32-.28.48-.54.92-.78,1.32-.32.32-.7.64-1.14.96-.44.32-.86.64-1.26.96-.16.24-.32.5-.48.78-.16.28-.32.62-.48,1.02-1.28,1.04-2.56,2.08-3.84,3.12-1.28,1.04-2.6,2-3.96,2.88-.96.32-1.96.58-3,.78-1.04.2-2.08.38-3.12.54-.8.08-1.6.2-2.4.36-.8.16-1.64.36-2.52.6-.48.08-.96.14-1.44.18-.48.04-1.04.06-1.68.06-1.04.08-2.06.14-3.06.18-1,.04-1.94.06-2.82.06-.96.4-1.48.88-1.56,1.44-.08.48-.2.96-.36,1.44-.16.48-.32.96-.48,1.44,0,1.04-.06,2.12-.18,3.24-.12,1.12-.14,2.2-.06,3.24,0,.4-.04.68-.12.84,0,.48-.02.98-.06,1.5-.04.52-.06,1.02-.06,1.5s.02.94.06,1.38c.04.44.1.86.18,1.26.24,1.52.04,3.04-.6,4.56,0,.4-.08.76-.24,1.08-.24.64-.68.88-1.32.72-1.2-.4-2.38-.62-3.54-.66-1.16-.04-2.38.02-3.66.18h-1.56c-1.12.56-2.28.92-3.48,1.08-1.2.16-2.44.28-3.72.36-.72,0-1.16-.24-1.32-.72-.08-.08-.12-.16-.12-.24-.16-2-.36-4.04-.6-6.12-.24-2.08-.32-4.12-.24-6.12,0-.4-.02-.8-.06-1.2-.04-.4-.1-.76-.18-1.08-.16-.88-.28-1.78-.36-2.7-.08-.92-.16-1.82-.24-2.7v-.96c0-.32-.08-.64-.24-.96-.32-.64-.46-1.32-.42-2.04.04-.72.06-1.36.06-1.92.24-.56.4-1.02.48-1.38.08-.36.16-.78.24-1.26-.24-.32-.34-.62-.3-.9.04-.28-.02-.54-.18-.78,0-.16-.04-.3-.12-.42-.08-.12-.12-.22-.12-.3-.08-2-.14-4.28-.18-6.84-.04-2.56-.04-4.96,0-7.2.04-2.24.1-3.84.18-4.8.16-.32.34-.6.54-.84.2-.24.34-.48.42-.72,0-.24-.08-.42-.24-.54-.16-.12-.32-.22-.48-.3.16-.72.34-1.44.54-2.16.2-.72.38-1.44.54-2.16-.08-.4-.16-.76-.24-1.08-.08-.32-.2-.64-.36-.96.24-.56.48-1.2.72-1.92-.08-.64-.14-1.36-.18-2.16-.04-.8-.14-1.64-.3-2.52.16-.24.28-.58.36-1.02.08-.44.2-.86.36-1.26.16-.4.18-.8.06-1.2-.12-.4-.06-.76.18-1.08.48-.16.88-.2,1.2-.12.16.08.36.18.6.3.24.12.44.22.6.3h.84c.96-.32,1.94-.62,2.94-.9,1-.28,1.94-.62,2.82-1.02.56-.32,1.2-.4,1.92-.24.48.08.94.14,1.38.18.44.04.86-.02,1.26-.18.56-.08,1.1-.14,1.62-.18.52-.04,1.06-.06,1.62-.06,1.52,0,3.04-.12,4.56-.36,1.52-.24,3.04-.52,4.56-.84.64-.24,1.32-.32,2.04-.24.72.08,1.4.08,2.04,0,.56.16,1.12.34,1.68.54.56.2,1.12.38,1.68.54.56.16,1.12.3,1.68.42.56.12,1.2.26,1.92.42,1.2-.32,2.48-.46,3.84-.42,1.36.04,2.68.1,3.96.18.72.08,1.42.24,2.1.48.68.24,1.3.56,1.86.96.8.32,1.68.84,2.64,1.56.4.32.78.66,1.14,1.02.36.36.7.74,1.02,1.14.16.08.28.22.36.42.08.2.16.38.24.54.16.56.44,1,.84,1.32.4.32.76.68,1.08,1.08,1.44,2.16,2.16,4.64,2.16,7.44.16.48.36.98.6,1.5.24.52.44.98.6,1.38ZM42.21,27.79c-.08-.48-.22-.96-.42-1.44-.2-.48-.38-.96-.54-1.44-.08-.24-.18-.44-.3-.6-.12-.16-.22-.28-.3-.36-.16-.4-.48-.52-.96-.36-.16.16-.32.28-.48.36-.16.08-.32.2-.48.36-.4.08-.78.14-1.14.18-.36.04-.74.1-1.14.18h-1.44c-.24-.16-.5-.34-.78-.54-.28-.2-.62-.42-1.02-.66-.56-.08-1.18-.14-1.86-.18-.68-.04-1.34-.02-1.98.06-1.52.32-2.72.92-3.6,1.8-.48-.16-.88-.24-1.2-.24-.24-.16-.48-.2-.72-.12-.24.08-.48.12-.72.12-.48.24-.92.52-1.32.84-.4.32-.72.76-.96,1.32-.08.32-.18.66-.3,1.02-.12.36-.18.74-.18,1.14-.08.8-.14,1.62-.18,2.46-.04.84-.1,1.7-.18,2.58,0,.48-.02.98-.06,1.5-.04.52-.02,1.02.06,1.5,0,.08.04.24.12.48.08.24.16.44.24.6,1.12-.16,2.16-.26,3.12-.3.96-.04,1.88.02,2.76.18.88.24,1.78.4,2.7.48.92.08,1.78.24,2.58.48.4.08.88.04,1.44-.12.48-.4.94-.8,1.38-1.2.44-.4.9-.8,1.38-1.2.4-.08.78-.14,1.14-.18.36-.04.7-.1,1.02-.18.48-.4.96-.82,1.44-1.26.48-.44.92-.86,1.32-1.26.16-.56.3-1.08.42-1.56.12-.48.22-1,.3-1.56.16-.48.34-.94.54-1.38.2-.44.3-.94.3-1.5Z"/>
      <path class="cls-1" d="M133.29,58.03c-.32,1.04-.42,2.06-.3,3.06.12,1,.1,2.02-.06,3.06-.08.56-.08,1.12,0,1.68.08.56.04,1.16-.12,1.8-.08.48-.1.98-.06,1.5.04.52.06,1.02.06,1.5-.08.32-.12.72-.12,1.2-.16.56-.26,1.1-.3,1.62-.04.52-.14,1.1-.3,1.74,0,.08-.02.18-.06.3-.04.12-.06.26-.06.42,0,.56-.32.84-.96.84-.08-.08-.28-.12-.6-.12-.56-.24-1.04-.28-1.44-.12-.4.16-.8.32-1.2.48-.24.24-.48.48-.72.72-.24.24-.48.52-.72.84-.88.48-1.7.62-2.46.42-.76-.2-1.54-.54-2.34-1.02-.48,0-.84.04-1.08.12h-.36c-.08-.08-.2-.12-.36-.12-.32-.24-.62-.48-.9-.72-.28-.24-.58-.48-.9-.72-.64-.64-.88-1.28-.72-1.92.08-.32.18-.62.3-.9.12-.28.14-.58.06-.9-.08-.4-.18-.8-.3-1.2-.12-.4-.18-.8-.18-1.2s.06-.8.18-1.2c.12-.4.22-.8.3-1.2-.16-.64-.4-1.28-.72-1.92-.32-.64-.56-1.32-.72-2.04-.08-.64-.18-1.3-.3-1.98-.12-.68-.18-1.34-.18-1.98-.08-.72-.14-1.42-.18-2.1-.04-.68-.06-1.42-.06-2.22-.16-.96-.56-1.72-1.2-2.28-.56-.64-1.04-1.24-1.44-1.8-.4-.56-.76-1.2-1.08-1.92-.4-.32-.92-.6-1.56-.84-.08-.16-.16-.32-.24-.48-.08-.16-.2-.28-.36-.36-.08-.08-.12-.18-.12-.3s-.04-.22-.12-.3l-.72-.72c-.32-.16-.64-.16-.96,0-.32.16-.6.24-.84.24-.32.08-.6.12-.84.12s-.56.04-.96.12c-.32.16-.58.34-.78.54-.2.2-.5.38-.9.54-.24.24-.52.42-.84.54-.32.12-.64.26-.96.42-.32.72-.36,1.4-.12,2.04.16.8.26,1.64.3,2.52.04.88.14,1.76.3,2.64.08.8,0,1.72-.24,2.76,0,.24-.04.5-.12.78-.08.28-.12.58-.12.9.08,1.28,0,2.54-.24,3.78-.24,1.24-.56,2.5-.96,3.78.08.8.16,1.58.24,2.34.08.76.16,1.54.24,2.34v2.52c0,1.04-.56,1.64-1.68,1.8h-2.52c-.8.08-1.58.16-2.34.24-.76.08-1.46.32-2.1.72-.32.08-.62.2-.9.36-.28.16-.62.32-1.02.48l-.84.84c-.16,0-.34.02-.54.06-.2.04-.38.02-.54-.06-.8-.4-1.56-.72-2.28-.96-.8-1.04-1.28-2.16-1.44-3.36-.16-1.2-.44-2.32-.84-3.36.08-.48.18-.94.3-1.38.12-.44.1-.86-.06-1.26-.08-.24-.12-.68-.12-1.32,0-.24.02-.46.06-.66.04-.2.02-.38-.06-.54-.24-1.52-.16-2.84.24-3.96.16-.72.12-1.48-.12-2.28-.32-1.44-.44-2.92-.36-4.44.24-1.28.2-2.56-.12-3.84-.24-.24-.24-.56,0-.96,0-.4.02-.82.06-1.26.04-.44.1-.82.18-1.14.08-.32.24-.58.48-.78.24-.2.44-.38.6-.54l.36-2.16c.16-.24.04-.64-.36-1.2-.08-.16-.2-.18-.36-.06-.16.12-.32.22-.48.3l-.12-.12c0-.88.02-1.7.06-2.46.04-.76.02-1.54-.06-2.34-.08-.32-.08-.6,0-.84.08-.24.12-.52.12-.84,0-.24-.04-.52-.12-.84-.08-.32-.12-.64-.12-.96v-.6c0-.24.04-.48.12-.72.08-.4.16-.8.24-1.2.08-.4.2-.84.36-1.32-.32-.64-.46-1.32-.42-2.04.04-.72-.02-1.48-.18-2.28-.08-.24-.06-.52.06-.84.12-.32.22-.68.3-1.08-.32-.72-.44-1.54-.36-2.46.08-.92.08-1.82,0-2.7.16-.48.2-.94.12-1.38-.08-.44-.12-.9-.12-1.38.08-.8.08-1.56,0-2.28-.08-.72-.04-1.44.12-2.16.08-.24.1-.44.06-.6-.04-.16-.06-.32-.06-.48-.16-1.52-.12-2.92.12-4.2.08-.24.12-.56.12-.96v-1.08c-.08-.32-.14-.6-.18-.84-.04-.24-.02-.52.06-.84.24-.48.34-.98.3-1.5-.04-.52.1-1.02.42-1.5.08-.16.12-.28.12-.36l.24-.12c0-.08.12-.12.36-.12.4-.16.78-.3,1.14-.42.36-.12.74-.22,1.14-.3.24.16.48.32.72.48.24.16.52.32.84.48h1.92c.16-.16.32-.28.48-.36.16-.08.28-.16.36-.24l1.2-.84c.32-.16.66-.26,1.02-.3.36-.04.66.06.9.3.72.48,1.42.88,2.1,1.2.68.32,1.38.52,2.1.6.4.64.7,1.24.9,1.8.2.56.42,1.16.66,1.8.24.8.6,1.72,1.08,2.76,0,.4-.14.72-.42.96-.28.24-.46.6-.54,1.08,0,.16.02.4.06.72.04.32.1.68.18,1.08,0,.32-.04.64-.12.96-.08.32-.08.68,0,1.08.16,1.28.2,2.56.12,3.84-.08,1.28-.2,2.52-.36,3.72v1.68c0,.8.2,1.6.6,2.4.32.32.62.66.9,1.02.28.36.54.74.78,1.14.48.48,1,.72,1.56.72,1.12,0,2.26.1,3.42.3,1.16.2,2.3.22,3.42.06.24-.08.44-.1.6-.06.16.04.36.06.6.06.24.16.54.28.9.36.36.08.7.16,1.02.24.88.16,1.24.68,1.08,1.56.16.08.28.16.36.24.16-.08.32-.12.48-.12s.28-.04.36-.12c1.04-.4,1.96-.32,2.76.24.48.4,1.04.7,1.68.9.64.2,1.24.62,1.8,1.26.56.96,1.28,1.86,2.16,2.7.88.84,1.76,1.74,2.64,2.7.16.24.36.46.6.66.24.2.44.38.6.54.72.72,1.12,1.44,1.2,2.16.24,1.12.52,2,.84,2.64.24.88.6,1.88,1.08,3v1.2c.08.32.16.66.24,1.02.08.36.12.74.12,1.14.08.96.16,1.92.24,2.88.08.96.16,1.92.24,2.88,0,.08.02.18.06.3.04.12.02.26-.06.42Z"/>
      <path class="cls-1" d="M208.41,44.95c.24.96.2,1.84-.12,2.64-.16.4-.28.8-.36,1.2-.08.4-.08.8,0,1.2.08.08.1.18.06.3-.04.12-.06.26-.06.42-.32.64-.46,1.32-.42,2.04.04.72.1,1.4.18,2.04l-1.2,1.68v1.56c-.16.16-.36.34-.6.54-.24.2-.56.46-.96.78-.16.56-.38,1.16-.66,1.8-.28.64-.5,1.24-.66,1.8v1.2c-.32.32-.72.6-1.2.84-.48.24-.88.6-1.2,1.08-.32.24-.64.44-.96.6-.32.16-.68.36-1.08.6-.16.08-.34.1-.54.06-.2-.04-.38-.02-.54.06-1.2,0-1.8.56-1.8,1.68-.88.56-1.74,1.16-2.58,1.8-.84.64-1.7,1.28-2.58,1.92-1.36,1.04-3.12,1.76-5.28,2.16-.72.08-1.4.26-2.04.54-.64.28-1.32.5-2.04.66-.16,0-.36-.04-.6-.12-.24-.08-.44-.08-.6,0-.96.08-1.96,0-3-.24-.32-.08-.64-.08-.96,0-.32.08-.6.16-.84.24-.56-.08-1.12-.16-1.68-.24-.56-.08-1.16-.16-1.8-.24-.72-.32-1.38-.68-1.98-1.08-.6-.4-1.22-.76-1.86-1.08-.48-.16-.92-.44-1.32-.84-.4-.4-.72-.8-.96-1.2-.08-.16-.18-.3-.3-.42s-.26-.26-.42-.42c-.24-.16-.48-.3-.72-.42-.24-.12-.48-.3-.72-.54-1.28-.88-2.42-1.84-3.42-2.88-1-1.04-1.74-2.32-2.22-3.84-.4-1.04-.88-1.96-1.44-2.76-.16-.32-.34-.62-.54-.9-.2-.28-.38-.58-.54-.9.08-.16.2-.48.36-.96-.16-.24-.32-.48-.48-.72-.16-.24-.24-.52-.24-.84,0-.24-.02-.5-.06-.78-.04-.28-.02-.58.06-.9.16-.56.2-1.12.12-1.68-.08-.56-.08-1.12,0-1.68.08-.48.06-1-.06-1.56-.12-.56-.06-1.08.18-1.56.16-.56.28-1.08.36-1.56.08-.48.2-.96.36-1.44.16-.48.32-.94.48-1.38.16-.44.32-.86.48-1.26.16-.48.32-.96.48-1.44.16-.48.4-1,.72-1.56v-.6c0-.24.04-.4.12-.48.32-.64.56-1.24.72-1.8.16-.56.2-1.12.12-1.68.32-.4.6-.72.84-.96.24-.24.44-.52.6-.84.16-.4.34-.78.54-1.14.2-.36.42-.7.66-1.02.24-.64.6-1.2,1.08-1.68.32-.4.6-.74.84-1.02.24-.28.44-.5.6-.66.24-.48.32-.9.24-1.26-.08-.36-.12-.66-.12-.9.16-.4.28-.64.36-.72.24-.08.46-.2.66-.36.2-.16.42-.28.66-.36.64-.4,1.32-.8,2.04-1.2.72-.4,1.44-.72,2.16-.96.72-.48,1.46-.82,2.22-1.02.76-.2,1.54-.42,2.34-.66h1.92c.64,0,1.24.04,1.8.12h1.08c.88.32,1.78.48,2.7.48s1.82-.04,2.7-.12c.4,0,.82-.02,1.26-.06.44-.04.86-.06,1.26-.06.4.32.74.58,1.02.78.28.2.58.46.9.78.24.08.48.2.72.36.24.16.52.28.84.36,1.12.08,2.14.44,3.06,1.08.92.64,1.78,1.28,2.58,1.92v.66c0,.28.04.54.12.78,0,.4.24.76.72,1.08.24.08.52.12.84.12s.64.08.96.24c.16.32.38.68.66,1.08.28.4.54.8.78,1.2.32.32.64.64.96.96.32.32.56.68.72,1.08.16.16.3.36.42.6.12.24.22.44.3.6.24.24.48.48.72.72.24.24.4.56.48.96.16.56.4,1.12.72,1.68.32.56.56,1.16.72,1.8.08.24.22.48.42.72.2.24.42.52.66.84.16.72.3,1.48.42,2.28.12.8.34,1.56.66,2.28ZM191.61,49.27c.08-.56,0-1.06-.24-1.5-.24-.44-.32-.9-.24-1.38,0-.16-.12-.36-.36-.6-.08-.16-.12-.48-.12-.96.08-.16.12-.38.12-.66v-.54c-.56-.88-1.08-1.7-1.56-2.46-.48-.76-1-1.5-1.56-2.22,0-.16-.08-.26-.24-.3-.16-.04-.32-.18-.48-.42-1.36,0-2.84-.36-4.44-1.08-.96-.48-2.12-.52-3.48-.12-.08,0-.18.04-.3.12-.12.08-.26.2-.42.36h-.6c-1.28-.24-2.12.24-2.52,1.44-.16.32-.34.66-.54,1.02-.2.36-.34.74-.42,1.14-.08.32-.24.66-.48,1.02-.24.36-.44.7-.6,1.02-.32.4-.6.84-.84,1.32-.24.48-.52.92-.84,1.32-.08.8-.26,1.6-.54,2.4-.28.8-.46,1.56-.54,2.28.24.4.48.82.72,1.26.24.44.44.86.6,1.26.48,1.04.68,2.04.6,3,0,.16.04.32.12.48.08.16.16.32.24.48.72.16,1.42.32,2.1.48.68.16,1.34.36,1.98.6.56.16,1.12.28,1.68.36.56.08,1.12,0,1.68-.24h.36c.64.16,1.26.18,1.86.06s1.26-.26,1.98-.42c.56-.4,1.14-.84,1.74-1.32.6-.48,1.22-.88,1.86-1.2.56-1.12,1.24-2.12,2.04-3,.8-.88,1.36-1.88,1.68-3Z"/>
      <path class="cls-1" d="M278.37,60.07c0,.64.02,1.3.06,1.98.04.68-.02,1.34-.18,1.98-.16.4-.2.76-.12,1.08.16.4.18.82.06,1.26-.12.44-.14.86-.06,1.26.16.56.2,1.18.12,1.86-.08.68-.08,1.34,0,1.98-.32.56-.84.84-1.56.84-.8,0-1.66.04-2.58.12-.92.08-1.82.28-2.7.6-.48.16-1,.24-1.56.24h-1.68c-.48-.32-.84-.6-1.08-.84-.96.32-1.76-.04-2.4-1.08-.32-.48-.58-1-.78-1.56-.2-.56-.3-1.16-.3-1.8.08-.64.08-1.28,0-1.92-.08-.64-.08-1.32,0-2.04.16-1.2,0-2.36-.48-3.48-.08-.24-.16-.48-.24-.72-.08-.24-.12-.48-.12-.72,0-.88-.04-1.78-.12-2.7-.08-.92-.24-1.78-.48-2.58-.08-.4-.14-.78-.18-1.14-.04-.36-.06-.7-.06-1.02-.24-.96-.76-1.72-1.56-2.28-.08-.64-.16-1.22-.24-1.74-.08-.52-.2-1.1-.36-1.74-.16-.16-.48-.4-.96-.72-.32-.24-.7-.44-1.14-.6-.44-.16-.86-.36-1.26-.6-.16-.16-.34-.38-.54-.66-.2-.28-.42-.54-.66-.78h-.72c-.32.08-.6.14-.84.18-.24.04-.56.02-.96-.06-.16-.08-.36-.1-.6-.06-.24.04-.44.06-.6.06-.4.56-.8,1.16-1.2,1.8-.32.24-.62.46-.9.66-.28.2-.5.38-.66.54-.24.24-.36.48-.36.72l-.84,2.52c.16.48.16.94,0,1.38-.16.44-.12.9.12,1.38.08.24.08.48,0,.72-.08.24-.16.44-.24.6-.24.32-.28.56-.12.72.16.16.28.36.36.6.08.08.16.24.24.48v2.76c0,.88-.16,1.76-.48,2.64.08.32.14.62.18.9.04.28.1.62.18,1.02-.08.48-.18,1.02-.3,1.62-.12.6-.14,1.22-.06,1.86.08.4.1.84.06,1.32-.04.48-.14.96-.3,1.44-.08.24-.08.48,0,.72.24.96.24,1.8,0,2.52-.24.72-.68,1.48-1.32,2.28-.08.08-.24.16-.48.24-.24.08-.44.16-.6.24-.16.16-.32.26-.48.3-.16.04-.32.1-.48.18-.32,0-.64-.02-.96-.06-.32-.04-.6-.06-.84-.06-.32.08-.58.18-.78.3-.2.12-.5.3-.9.54-1.04-.16-2.1-.36-3.18-.6s-2.14-.16-3.18.24c-.48-.08-.88-.28-1.2-.6-.32-.32-.6-.68-.84-1.08-.32-.48-.52-1.02-.6-1.62-.08-.6-.2-1.18-.36-1.74.16-1.36.24-2.3.24-2.82s-.12-1.7-.36-3.54c.24-1.28.4-2.58.48-3.9.08-1.32.12-2.62.12-3.9v-5.16c0-1.76.04-3.52.12-5.28,0-.48.04-.96.12-1.44.08-.48.16-.92.24-1.32.16-.88.32-1.72.48-2.52.16-.8.36-1.56.6-2.28.16-.56.44-1.04.84-1.44s.68-.88.84-1.44c.16-1.12.5-2.1,1.02-2.94.52-.84,1.06-1.66,1.62-2.46.4-1.12,1.12-1.56,2.16-1.32.16,0,.24-.04.24-.12.24-.24.3-.56.18-.96-.12-.4-.02-.76.3-1.08.72-.64,1.56-1.14,2.52-1.5.96-.36,1.84-.7,2.64-1.02.72,0,1.2.08,1.44.24,1.04.32,2.04.32,3,0,.72-.16,1.36.04,1.92.6.8.16,1.56.32,2.28.48.72.16,1.48.32,2.28.48.32-.08.64-.14.96-.18.32-.04.64-.1.96-.18.8.32,1.46.78,1.98,1.38.52.6,1.06,1.22,1.62,1.86.4.32.84.44,1.32.36.48-.08,1-.04,1.56.12.4.4.82.84,1.26,1.32.44.48.9.92,1.38,1.32.08.32.18.62.3.9.12.28.22.58.3.9.4.08.68.28.84.6.16.32.28.6.36.84.8.32,1.6.56,2.4.72.4.4.76.86,1.08,1.38.32.52.84.78,1.56.78.16.8.32,1.52.48,2.16.16.64.32,1.28.48,1.92.16,1.2.44,2.24.84,3.12.32.64.6,1.3.84,1.98.24.68.36,1.42.36,2.22.08.48.26.92.54,1.32.28.4.5.84.66,1.32-.08.32-.14.64-.18.96-.04.32-.06.68-.06,1.08,0,.32.02.6.06.84.04.24.1.56.18.96,0,.16.02.38.06.66.04.28.02.5-.06.66-.16.56-.2,1.12-.12,1.68.08.56.12,1.08.12,1.56Z"/>
      <path class="cls-1" d="M353.73,44.95c.24.96.2,1.84-.12,2.64-.16.4-.28.8-.36,1.2-.08.4-.08.8,0,1.2.08.08.1.18.06.3-.04.12-.06.26-.06.42-.32.64-.46,1.32-.42,2.04.04.72.1,1.4.18,2.04l-1.2,1.68v1.56c-.16.16-.36.34-.6.54-.24.2-.56.46-.96.78-.16.56-.38,1.16-.66,1.8-.28.64-.5,1.24-.66,1.8v1.2c-.32.32-.72.6-1.2.84-.48.24-.88.6-1.2,1.08-.32.24-.64.44-.96.6-.32.16-.68.36-1.08.6-.16.08-.34.1-.54.06-.2-.04-.38-.02-.54.06-1.2,0-1.8.56-1.8,1.68-.88.56-1.74,1.16-2.58,1.8-.84.64-1.7,1.28-2.58,1.92-1.36,1.04-3.12,1.76-5.28,2.16-.72.08-1.4.26-2.04.54-.64.28-1.32.5-2.04.66-.16,0-.36-.04-.6-.12-.24-.08-.44-.08-.6,0-.96.08-1.96,0-3-.24-.32-.08-.64-.08-.96,0-.32.08-.6.16-.84.24-.56-.08-1.12-.16-1.68-.24-.56-.08-1.16-.16-1.8-.24-.72-.32-1.38-.68-1.98-1.08-.6-.4-1.22-.76-1.86-1.08-.48-.16-.92-.44-1.32-.84-.4-.4-.72-.8-.96-1.2-.08-.16-.18-.3-.3-.42s-.26-.26-.42-.42c-.24-.16-.48-.3-.72-.42-.24-.12-.48-.3-.72-.54-1.28-.88-2.42-1.84-3.42-2.88-1-1.04-1.74-2.32-2.22-3.84-.4-1.04-.88-1.96-1.44-2.76-.16-.32-.34-.62-.54-.9-.2-.28-.38-.58-.54-.9.08-.16.2-.48.36-.96-.16-.24-.32-.48-.48-.72-.16-.24-.24-.52-.24-.84,0-.24-.02-.5-.06-.78-.04-.28-.02-.58.06-.9.16-.56.2-1.12.12-1.68-.08-.56-.08-1.12,0-1.68.08-.48.06-1-.06-1.56-.12-.56-.06-1.08.18-1.56.16-.56.28-1.08.36-1.56.08-.48.2-.96.36-1.44.16-.48.32-.94.48-1.38.16-.44.32-.86.48-1.26.16-.48.32-.96.48-1.44.16-.48.4-1,.72-1.56v-.6c0-.24.04-.4.12-.48.32-.64.56-1.24.72-1.8.16-.56.2-1.12.12-1.68.32-.4.6-.72.84-.96.24-.24.44-.52.6-.84.16-.4.34-.78.54-1.14.2-.36.42-.7.66-1.02.24-.64.6-1.2,1.08-1.68.32-.4.6-.74.84-1.02.24-.28.44-.5.6-.66.24-.48.32-.9.24-1.26-.08-.36-.12-.66-.12-.9.16-.4.28-.64.36-.72.24-.08.46-.2.66-.36.2-.16.42-.28.66-.36.64-.4,1.32-.8,2.04-1.2.72-.4,1.44-.72,2.16-.96.72-.48,1.46-.82,2.22-1.02.76-.2,1.54-.42,2.34-.66h1.92c.64,0,1.24.04,1.8.12h1.08c.88.32,1.78.48,2.7.48s1.82-.04,2.7-.12c.4,0,.82-.02,1.26-.06.44-.04.86-.06,1.26-.06.4.32.74.58,1.02.78.28.2.58.46.9.78.24.08.48.2.72.36.24.16.52.28.84.36,1.12.08,2.14.44,3.06,1.08.92.64,1.78,1.28,2.58,1.92v.66c0,.28.04.54.12.78,0,.4.24.76.72,1.08.24.08.52.12.84.12s.64.08.96.24c.16.32.38.68.66,1.08.28.4.54.8.78,1.2.32.32.64.64.96.96.32.32.56.68.72,1.08.16.16.3.36.42.6.12.24.22.44.3.6.24.24.48.48.72.72.24.24.4.56.48.96.16.56.4,1.12.72,1.68.32.56.56,1.16.72,1.8.08.24.22.48.42.72.2.24.42.52.66.84.16.72.3,1.48.42,2.28.12.8.34,1.56.66,2.28ZM336.93,49.27c.08-.56,0-1.06-.24-1.5-.24-.44-.32-.9-.24-1.38,0-.16-.12-.36-.36-.6-.08-.16-.12-.48-.12-.96.08-.16.12-.38.12-.66v-.54c-.56-.88-1.08-1.7-1.56-2.46-.48-.76-1-1.5-1.56-2.22,0-.16-.08-.26-.24-.3-.16-.04-.32-.18-.48-.42-1.36,0-2.84-.36-4.44-1.08-.96-.48-2.12-.52-3.48-.12-.08,0-.18.04-.3.12-.12.08-.26.2-.42.36h-.6c-1.28-.24-2.12.24-2.52,1.44-.16.32-.34.66-.54,1.02-.2.36-.34.74-.42,1.14-.08.32-.24.66-.48,1.02-.24.36-.44.7-.6,1.02-.32.4-.6.84-.84,1.32-.24.48-.52.92-.84,1.32-.08.8-.26,1.6-.54,2.4-.28.8-.46,1.56-.54,2.28.24.4.48.82.72,1.26.24.44.44.86.6,1.26.48,1.04.68,2.04.6,3,0,.16.04.32.12.48.08.16.16.32.24.48.72.16,1.42.32,2.1.48.68.16,1.34.36,1.98.6.56.16,1.12.28,1.68.36.56.08,1.12,0,1.68-.24h.36c.64.16,1.26.18,1.86.06s1.26-.26,1.98-.42c.56-.4,1.14-.84,1.74-1.32.6-.48,1.22-.88,1.86-1.2.56-1.12,1.24-2.12,2.04-3,.8-.88,1.36-1.88,1.68-3Z"/>
      <path class="cls-1" d="M429.33,49.27c-.08.08-.1.18-.06.3.04.12.02.26-.06.42-.24.8-.32,1.56-.24,2.28,0,.88-.24,1.8-.72,2.76.16.32.3.66.42,1.02.12.36.22.74.3,1.14-.16.88-.34,1.8-.54,2.76-.2.96-.02,1.88.54,2.76-.08.48-.2.96-.36,1.44-.16.48-.32.92-.48,1.32-.08.4-.18.8-.3,1.2-.12.4-.26.92-.42,1.56,0-.16-.02-.2-.06-.12-.04.08-.02.2.06.36.32,1.28.32,2.52,0,3.72-.32,1.2-.72,2.4-1.2,3.6-.08.08-.16.22-.24.42-.08.2-.2.38-.36.54-.88,1.52-1.7,3.08-2.46,4.68-.76,1.6-1.54,3.2-2.34,4.8-.08.32-.24.68-.48,1.08-.24.4-.44.8-.6,1.2-.32.48-.6.84-.84,1.08-.56.48-1.16.98-1.8,1.5-.64.52-1.28,1.02-1.92,1.5-.8.32-1.48.76-2.04,1.32-.56.56-1.08,1.24-1.56,2.04-.56.16-1.08.4-1.56.72-.48.16-.92.48-1.32.96-.16.32-.44.48-.84.48-.4.08-.74.28-1.02.6-.28.32-.62.56-1.02.72-.72.24-1.36.64-1.92,1.2-.72.48-1.48.84-2.28,1.08-.4.08-.8.26-1.2.54-.4.28-.76.5-1.08.66-.16-.08-.32-.12-.48-.12l-3.6-3.6c-.16-1.44-.3-2.5-.42-3.18-.12-.68-.32-1.28-.6-1.8-.28-.52-.78-1.22-1.5-2.1.08-.16.12-.28.12-.36s.04-.16.12-.24c.24-.16.52-.36.84-.6.32-.24.64-.4.96-.48.64-.4,1.2-.82,1.68-1.26.48-.44,1-.86,1.56-1.26.48-.4,1-.78,1.56-1.14.56-.36,1.12-.7,1.68-1.02.56-.4,1.1-.82,1.62-1.26.52-.44.98-.94,1.38-1.5.24-.32.48-.6.72-.84.24-.24.48-.48.72-.72.08-.32.12-.62.12-.9s.04-.54.12-.78c.32-.8.28-1.72-.12-2.76v-.24l.84-1.2c0,.08.12-.36.36-1.32,0-.72-.02-1.3-.06-1.74-.04-.44-.06-.98-.06-1.62-.32-.4-.54-.62-.66-.66-.12-.04-.26.02-.42.18-.32.32-.72.56-1.2.72-.48.16-.96.32-1.44.48-.08,0-.24.08-.48.24-.24.16-.44.2-.6.12l-1.56,1.08c-.08,0-.14.02-.18.06-.04.04-.1.06-.18.06h-3c-.24-.32-.52-.6-.84-.84-.32-.24-.6-.52-.84-.84-.56-.16-.98-.18-1.26-.06-.28.12-.62.18-1.02.18l-2.04-.36h-1.68c-.56-.4-1.08-.78-1.56-1.14s-1-.7-1.56-1.02c-1.36.08-2.24.1-2.64.06-.4-.04-1.08-.34-2.04-.9-.16-.24-.28-.48-.36-.72-.08-.24-.2-.48-.36-.72-.24-.48-.42-.98-.54-1.5-.12-.52-.3-.98-.54-1.38-.32-.32-.48-.76-.48-1.32.08-.64,0-1.22-.24-1.74-.24-.52-.44-1.06-.6-1.62-.08-.56-.28-1.08-.6-1.56-.32-.48-.56-.96-.72-1.44.08-.88-.16-1.68-.72-2.4-.16-1.12-.4-2.16-.72-3.12.4-1.44.6-2.64.6-3.6,0-.64.06-1.22.18-1.74.12-.52.22-1.06.3-1.62-.08-.16-.16-.34-.24-.54-.08-.2-.2-.34-.36-.42h.12l.72-.72c.24-.16.44-.56.6-1.2-.08-.32-.16-.62-.24-.9-.08-.28-.16-.58-.24-.9,0-.4.04-.64.12-.72.8-.64,1.28-1.12,1.44-1.44.16-.32.4-1,.72-2.04.08-.08.22-.16.42-.24.2-.08.34-.16.42-.24l.72-.48c.16-.4.34-.82.54-1.26.2-.44.38-.94.54-1.5.64-.64,1.34-1.24,2.1-1.8.76-.56,1.54-1.08,2.34-1.56,1.04-.64,1.72-1.1,2.04-1.38.32-.28.92-.86,1.8-1.74.56-.24,1.14-.5,1.74-.78.6-.28,1.18-.66,1.74-1.14.4-.24.8-.48,1.2-.72.4-.24.76-.44,1.08-.6.4.08.74.12,1.02.12h.78c.48-.08.84-.3,1.08-.66.24-.36.52-.66.84-.9.8-.24,1.68-.28,2.64-.12.4,0,.82.02,1.26.06.44.04.86.06,1.26.06.88,0,1.74-.02,2.58-.06.84-.04,1.62-.18,2.34-.42.64.4,1.22.82,1.74,1.26.52.44,1.06.74,1.62.9.16.24.32.44.48.6.16.16.28.32.36.48.32.48.64.52.96.12.16-.16.28-.28.36-.36.08-.08.2-.16.36-.24.08-.08.18-.18.3-.3.12-.12.22-.22.3-.3.4.32.84.66,1.32,1.02.48.36.92.7,1.32,1.02.4.32.82.66,1.26,1.02.44.36.86.66,1.26.9.32.32.84.56,1.56.72.16.32.32.64.48.96.16.32.32.64.48.96.4.72.78,1.44,1.14,2.16s.78,1.4,1.26,2.04c.88,1.12,1.44,2.36,1.68,3.72,0,.56-.1,1.12-.3,1.68-.2.56-.22,1.28-.06,2.16.16.4.34.86.54,1.38.2.52.38,1.06.54,1.62.16.8.18,1.54.06,2.22-.12.68-.26,1.38-.42,2.1.16.32.28.62.36.9.08.28.2.62.36,1.02ZM412.17,49.27c-.4-.56-.72-1.12-.96-1.68-.08-.4-.18-.8-.3-1.2-.12-.4-.18-.76-.18-1.08-.08-.4-.12-.82-.12-1.26s-.04-.86-.12-1.26c-.08-.4-.12-.82-.12-1.26s-.2-.82-.6-1.14c-.24-.16-.54-.28-.9-.36-.36-.08-.74-.2-1.14-.36-.32-.32-.66-.62-1.02-.9-.36-.28-.7-.5-1.02-.66-.32-.08-.6-.12-.84-.12-.72.08-1.42.18-2.1.3-.68.12-1.38.18-2.1.18-.16,0-.36.04-.6.12-.24.08-.44.16-.6.24-.4.4-.86.66-1.38.78-.52.12-1.02.26-1.5.42-.32.08-.68.24-1.08.48-.4.24-.68.56-.84.96-.24.48-.54.82-.9,1.02-.36.2-.7.38-1.02.54-.32.32-.5.62-.54.9-.04.28-.1.54-.18.78-.08.32-.2.58-.36.78-.16.2-.32.42-.48.66.48,1.52.92,2.78,1.32,3.78.4,1,.88,1.98,1.44,2.94.08.32.1.58.06.78-.04.2.02.42.18.66.56.08,1.08.08,1.56,0,.48-.08.92-.28,1.32-.6.08-.08.2-.1.36-.06.16.04.28.06.36.06.32.32.6.62.84.9.24.28.48.54.72.78.64.24,1.24.44,1.8.6.56.16,1.12.12,1.68-.12.48-.32.88-.74,1.2-1.26.32-.52.76-.86,1.32-1.02.32,0,.66.02,1.02.06.36.04.74.06,1.14.06.16-.16.38-.32.66-.48.28-.16.5-.32.66-.48.4-.4.78-.76,1.14-1.08.36-.32.78-.6,1.26-.84.56-.4.88-.92.96-1.56Z"/>
      <path class="cls-1" d="M493.77,27.07c.16,1.28-.04,2.2-.6,2.76-.4.48-.66,1-.78,1.56-.12.56-.22,1.16-.3,1.8-.16.24-.3.48-.42.72s-.26.48-.42.72c-.32.32-.62.68-.9,1.08-.28.4-.54.8-.78,1.2-.16.32-.28.68-.36,1.08-.08.4-.2.8-.36,1.2-.08.08-.14.18-.18.3-.04.12-.1.22-.18.3-.08.08-.18.12-.3.12s-.22.04-.3.12h-.6c-1.76-.72-3.48-.76-5.16-.12-.32.08-.6.12-.84.12h-.84c-.24.08-.46.12-.66.12s-.38.04-.54.12c-.96.4-1.8.92-2.52,1.56-.72.64-1.4,1.32-2.04,2.04-.32.96-.66,1.94-1.02,2.94-.36,1-.54,2.1-.54,3.3,0,.08-.04.22-.12.42-.08.2-.16.38-.24.54-.08.32-.18.58-.3.78-.12.2-.26.46-.42.78-.16.48-.36.96-.6,1.44-.24.48-.44.96-.6,1.44.16.56.14,1.08-.06,1.56-.2.48-.3.96-.3,1.44.16.72.18,1.38.06,1.98-.12.6-.26,1.22-.42,1.86-.24.72-.34,1.46-.3,2.22.04.76.06,1.5.06,2.22-.08.88-.1,1.8-.06,2.76.04.96.06,1.88.06,2.76,0,.56-.04,1.16-.12,1.8-.08.64-.12,1.28-.12,1.92-.24.48-.44.8-.6.96-.56.88-1.24,1.5-2.04,1.86-.8.36-1.68.5-2.64.42-.64-.08-1.3-.16-1.98-.24-.68-.08-1.34-.16-1.98-.24-.32-.08-.72-.18-1.2-.3s-.92-.26-1.32-.42c-.32.08-.58.14-.78.18-.2.04-.42.1-.66.18-1.04-.32-2-.92-2.88-1.8.08-.56.12-1.12.12-1.68s.04-1.12.12-1.68c-.08-.24-.14-.54-.18-.9-.04-.36-.14-.7-.3-1.02-.08-.48-.2-.96-.36-1.44-.16-.48-.2-1-.12-1.56-.08-1.2-.32-2.6-.72-4.2.16-.16.3-.38.42-.66.12-.28.22-.54.3-.78.08-.24.14-.46.18-.66.04-.2.06-.42.06-.66,0-.16.04-.3.12-.42.08-.12.04-.26-.12-.42-.08-.24-.14-.5-.18-.78-.04-.28-.1-.54-.18-.78-.08-.8-.08-1.6,0-2.4.08-.32.14-.62.18-.9.04-.28.1-.58.18-.9.16-.4.22-.84.18-1.32-.04-.48-.26-.88-.66-1.2-.08-.08-.14-.18-.18-.3-.04-.12-.14-.22-.3-.3-.08-.4-.14-.84-.18-1.32-.04-.48-.14-.92-.3-1.32-.08-.56-.18-1.08-.3-1.56-.12-.48-.18-1-.18-1.56.16-.96.2-1.9.12-2.82-.08-.92,0-1.86.24-2.82,0-.16-.02-.36-.06-.6-.04-.24-.06-.44-.06-.6-.08-.88-.14-1.76-.18-2.64-.04-.88.1-1.76.42-2.64.16-.32.24-.68.24-1.08v-1.2c0-.72.02-1.42.06-2.1.04-.68.22-1.34.54-1.98,0-.24-.12-.64-.36-1.2.16-.4.3-.82.42-1.26.12-.44.22-.86.3-1.26.16-.4.28-.78.36-1.14.08-.36.16-.7.24-1.02.48-.48.92-.68,1.32-.6.8.24,1.62.26,2.46.06.84-.2,1.66-.26,2.46-.18.24,0,.48-.06.72-.18.24-.12.48-.22.72-.3,1.36-.4,2.48-.36,3.36.12.56.96.88,1.68.96,2.16.08.48.16,1.64.24,3.48.24.88.68,1.72,1.32,2.52.16.16.42.26.78.3.36.04.62-.02.78-.18.32-.24.6-.46.84-.66.24-.2.48-.46.72-.78.48-.4.94-.82,1.38-1.26.44-.44.82-.82,1.14-1.14.88-.4,1.74-.8,2.58-1.2.84-.4,1.78-.8,2.82-1.2h2.76l.24-.12c.08,0,.14-.02.18-.06.04-.04.1-.02.18.06l.36-.12c.96.48,1.8.6,2.52.36,1.28-.4,2.52-.24,3.72.48.72.32,1.4.64,2.04.96.64.32,1.32.68,2.04,1.08.24.32.52.64.84.96.32.32.6.64.84.96Z"/>
      <path class="cls-1" d="M573.57,71.83c.24.56.32,1.08.24,1.56-.08.48-.24.96-.48,1.44-.08.08-.24.18-.48.3-.24.12-.44.26-.6.42-.32.08-.6.12-.84.12s-.52.08-.84.24c-1.2.24-1.92.88-2.16,1.92-.08.16-.24.36-.48.6-.56.08-.96.18-1.2.3-.24.12-.72.38-1.44.78-.56,0-1.12.08-1.68.24-.56.16-1.08.48-1.56.96-.16,0-.28.02-.36.06-.08.04-.2.06-.36.06-.32.16-.68.1-1.08-.18-.4-.28-.6-.62-.6-1.02v-.72c-.32-.16-.7-.16-1.14,0-.44.16-.78,0-1.02-.48v-1.8c-.24-.16-.46-.3-.66-.42-.2-.12-.42-.22-.66-.3-.32-.64-.68-1.32-1.08-2.04-.4-.72-.8-1.36-1.2-1.92-.32-.24-.6-.32-.84-.24-.24.08-.44.2-.6.36-.16.16-.28.34-.36.54-.08.2-.2.38-.36.54-.16.16-.28.36-.36.6-.08.24-.2.44-.36.6-1.04.48-2.08.9-3.12,1.26-1.04.36-2.04.66-3,.9-.56.4-1.12.76-1.68,1.08-.56.32-1.08.64-1.56.96-.48.08-.96.2-1.44.36-.48.16-.92.28-1.32.36-.48-.24-.94-.3-1.38-.18-.44.12-.98.26-1.62.42-.72-.16-1.48-.34-2.28-.54-.8-.2-1.64-.38-2.52-.54-.24.08-.48.12-.72.12s-.44.04-.6.12c-.32-.16-.58-.32-.78-.48-.2-.16-.46-.28-.78-.36-.4-.16-.76-.16-1.08,0-.32.16-.68.32-1.08.48-.4-.16-.84-.26-1.32-.3-.48-.04-.96-.1-1.44-.18-.4-.4-.74-.76-1.02-1.08-.28-.32-.46-.72-.54-1.2-.16-.16-.32-.3-.48-.42-.16-.12-.28-.22-.36-.3-.32-1.12-.68-2.08-1.08-2.88-1.12-2.4-1.88-5.04-2.28-7.92-.16-.16-.32-.34-.48-.54-.16-.2-.36-.42-.6-.66-.08-.72-.16-1.42-.24-2.1-.08-.68-.2-1.42-.36-2.22.16-.48.24-.92.24-1.32-.16-.8-.32-1.52-.48-2.16.32-.96.66-1.92,1.02-2.88s.46-1.96.3-3c.16-.32.36-.62.6-.9.24-.28.44-.54.6-.78.72-.8,1.24-1.72,1.56-2.76.24-.88.66-1.64,1.26-2.28.6-.64,1.26-1.16,1.98-1.56.88-.4,1.74-.82,2.58-1.26.84-.44,1.66-.82,2.46-1.14.16,0,.38.02.66.06.28.04.5.02.66-.06,1.44-.24,2.68-.32,3.72-.24.48.08.96.08,1.44,0,.48-.08.92-.12,1.32-.12l2.52-.48c.48.08.96.2,1.44.36.48.16.96.12,1.44-.12.16,0,.3.02.42.06.12.04.22.06.3.06.4.16.76.34,1.08.54.32.2.68.3,1.08.3.88.16,1.44,0,1.68-.48-.08-1.36-.18-2.24-.3-2.64-.12-.4-.38-1.04-.78-1.92-.24-.48-.4-.98-.48-1.5-.08-.52-.16-1.02-.24-1.5-.08-.32-.14-.62-.18-.9-.04-.28-.22-.58-.54-.9-1.04-.32-2.32-.56-3.84-.72h-.72c-.72.32-1.48.48-2.28.48s-1.64.08-2.52.24c-.56.08-1.14.24-1.74.48s-1.22.44-1.86.6c-.64.32-1.28.16-1.92-.48-.24-.72-.34-1.46-.3-2.22.04-.76.1-1.54.18-2.34-.16-.56-.36-1.22-.6-1.98-.24-.76-.36-1.66-.36-2.7l.12-.84c-.08-.16-.22-.32-.42-.48-.2-.16-.38-.28-.54-.36-.24-.24-.28-.48-.12-.72,0-.24.12-.36.36-.36.64-.16,1.24-.28,1.8-.36.56-.08,1.12-.16,1.68-.24l1.44-1.44c.16-.08.36-.12.6-.12,1.84.32,3.18.44,4.02.36.84-.08,2.14-.4,3.9-.96.88.08,1.74.2,2.58.36.84.16,1.7.2,2.58.12.24.24.5.46.78.66.28.2.58.42.9.66.4-.16.8-.3,1.2-.42.4-.12.76-.22,1.08-.3.48.32,1,.64,1.56.96.4.08.74,0,1.02-.24.28-.24.58-.36.9-.36.72.08,1.3.42,1.74,1.02.44.6.94,1.1,1.5,1.5.48.32.94.72,1.38,1.2.44.48.9.92,1.38,1.32.16.24.32.48.48.72.16.24.28.48.36.72.4.32.76.58,1.08.78.32.2.6.46.84.78.4.32.82.56,1.26.72.44.16.78.44,1.02.84.16.4.32.82.48,1.26.16.44.44.82.84,1.14.24.8.48,1.62.72,2.46.24.84.28,1.7.12,2.58,0,.4-.04.76-.12,1.08.16.4.28.84.36,1.32.08.48.2.92.36,1.32v.6c0,.24-.02.5-.06.78-.04.28-.02.5.06.66.16.48.36.84.6,1.08,0,.48-.2.92-.6,1.32-.16.08-.36.16-.6.24-.24.08-.44.2-.6.36-.96.56-1.08,1.28-.36,2.16.08.08.22.22.42.42.2.2.34.42.42.66.08.32.12.66.12,1.02s.04.74.12,1.14c-.32,1.52-.92,2.96-1.8,4.32.24,1.12.62,2.2,1.14,3.24.52,1.04.98,2.12,1.38,3.24.4.24.72.48.96.72.24.24.52.44.84.6.08.24.14.4.18.48.04.08.06.2.06.36,0,.8.1,1.6.3,2.4.2.8.46,1.56.78,2.28.32.72.64,1.4.96,2.04.32.64.72,1.28,1.2,1.92.4.32.72.76.96,1.32.24.56.44,1.04.6,1.44ZM521.85,75.31c-.08,0-.12.08-.12.24.16-.16.2-.24.12-.24ZM547.29,55.63c-.48-1.2-1.08-2-1.8-2.4-.88-.4-1.44-.92-1.68-1.56-.08-.32-.24-.52-.48-.6-.24-.08-.48-.16-.72-.24-.32,0-.7.02-1.14.06-.44.04-.86.1-1.26.18-.48,0-.94-.08-1.38-.24-.44-.16-.86-.28-1.26-.36-.72,0-1.4.2-2.04.6-.32.24-.6.46-.84.66-.24.2-.48.46-.72.78l-1.56,2.88c.16.48.36.9.6,1.26.24.36.24.86,0,1.5.16.72.34,1.46.54,2.22.2.76.5,1.5.9,2.22.16.16.28.24.36.24.88.16,1.76.24,2.64.24s1.72-.04,2.52-.12c.32,0,.56-.04.72-.12.88-.48,1.96-.92,3.24-1.32.48-.08.92-.44,1.32-1.08.32-.72.64-1.5.96-2.34.32-.84.68-1.66,1.08-2.46Z"/>
      <path class="cls-1" d="M648.45,50.95c-.08.08-.1.2-.06.36.04.16.02.28-.06.36-.24.56-.46,1.1-.66,1.62-.2.52-.42,1.06-.66,1.62-.4,1.12-.96,2.08-1.68,2.88-.56.8-1.1,1.58-1.62,2.34-.52.76-1.02,1.5-1.5,2.22-.8.64-1.62,1.22-2.46,1.74-.84.52-1.74.98-2.7,1.38-.48.16-.84.36-1.08.6-.4.48-.88.8-1.44.96-.4.16-.8.34-1.2.54-.4.2-.8.5-1.2.9-.8.32-1.58.68-2.34,1.08-.76.4-1.58.64-2.46.72-.24,0-.46.02-.66.06-.2.04-.46.1-.78.18-.32-.16-.68-.3-1.08-.42-.4-.12-.8-.3-1.2-.54-.72.08-1.44.18-2.16.3-.72.12-1.48.26-2.28.42-.32-.16-.62-.32-.9-.48-.28-.16-.58-.28-.9-.36-.32-.16-.6-.3-.84-.42-.24-.12-.56-.1-.96.06-.32.32-.6.68-.84,1.08-.24.4-.48.84-.72,1.32-.08.32-.12.64-.12.96v.84l.48,2.04c0,.56-.08,1-.24,1.32-.32.88-.36,1.8-.12,2.76.32,1.04.46,2.12.42,3.24-.04,1.12-.06,2.24-.06,3.36-.32.8-.48,1.64-.48,2.52s-.08,1.76-.24,2.64c0,.24-.04.44-.12.6-.64.88-1.44,1.32-2.4,1.32h-2.7c-.92,0-1.82-.2-2.7-.6-.24-.08-.52-.12-.84-.12h-.96c-.72.08-1.44.1-2.16.06-.72-.04-1.44-.22-2.16-.54-.32-.16-.7-.24-1.14-.24h-1.26c-.08-.16-.16-.26-.24-.3-.08-.04-.12-.1-.12-.18-.24-.64-.44-1.28-.6-1.92-.16-.64-.28-1.24-.36-1.8,0-.4-.08-.8-.24-1.2-.16-.4-.28-.8-.36-1.2,0-.64.12-1.26.36-1.86.24-.6.4-1.18.48-1.74-.08-.56-.14-1.1-.18-1.62-.04-.52-.02-1.02.06-1.5,0-.48-.06-.96-.18-1.44-.12-.48-.26-1-.42-1.56.16-.24.34-.56.54-.96.2-.4.34-.76.42-1.08.16-.56.12-1.08-.12-1.56-.24-.48-.32-1.12-.24-1.92.16-.32.3-.66.42-1.02.12-.36.26-.74.42-1.14-.16-.96-.28-2.5-.36-4.62-.08-2.12-.14-4.18-.18-6.18-.04-2-.02-3.32.06-3.96-.16-1.12-.16-2.18,0-3.18.16-1,.4-2.02.72-3.06.08-.4.18-.74.3-1.02.12-.28.26-.58.42-.9.16-.56.34-1.34.54-2.34.2-1,.34-1.54.42-1.62.32-1.28.52-2.18.6-2.7.08-.52.26-1,.54-1.44.28-.44.82-1.18,1.62-2.22.8-1.04,1.52-2.32,2.16-3.84.24-.48.4-.92.48-1.32.16-.16.28-.28.36-.36.08-.08.16-.16.24-.24l.84-1.68c.72-1.52,1.88-2.6,3.48-3.24.48-.16.98-.42,1.5-.78.52-.36,1.14-.74,1.86-1.14,1.04-.24,2.12-.56,3.24-.96,1.12-.4,2.32-.76,3.6-1.08.48-.16,1-.24,1.56-.24s1.12-.04,1.68-.12c.4.08.8.14,1.2.18.4.04.84.06,1.32.06.72.08,1.42.16,2.1.24.68.08,1.34.32,1.98.72.32.08.66.14,1.02.18.36.04.7.1,1.02.18h1.8c.64,0,1.24.08,1.8.24.24.16.78.44,1.62.84.84.4,1.3.6,1.38.6.32.16.52.32.6.48.16.16.32.36.48.6.16.24.36.44.6.6,1.12.8,2.1,1.7,2.94,2.7.84,1,1.66,2.06,2.46,3.18.4.72.84,1.24,1.32,1.56.24.24.46.5.66.78.2.28.42.58.66.9v1.5c0,.52.04,1.02.12,1.5,0,.32.06.68.18,1.08.12.4.22.8.3,1.2-.08.24-.12.9-.12,1.98s.04,1.82.12,2.22c.4,1.12.4,2.12,0,3-.16.48-.08.96.24,1.44.08.32.1.92.06,1.8-.04.88-.02,1.48.06,1.8ZM632.85,46.39c-.08-1.36-.34-2.58-.78-3.66-.44-1.08-1.1-2.1-1.98-3.06-.72-.8-1.42-1.46-2.1-1.98-.68-.52-1.46-1.02-2.34-1.5-1.44-.24-2.72-.2-3.84.12-.32.32-.9.52-1.74.6-.84.08-1.38.28-1.62.6-.32.64-.78,1.34-1.38,2.1-.6.76-.98,1.18-1.14,1.26-.48,1.04-.78,2.2-.9,3.48-.12,1.28-.06,2.4.18,3.36.16.8.32,1.56.48,2.28.16.72.32,1.4.48,2.04,0,.24.08.44.24.6.16.08.28.4.36.96.08.56.24.92.48,1.08.16.48.44.78.84.9.4.12.88.38,1.44.78.24,0,.48.02.72.06.24.04.52.06.84.06.64,0,1.24.02,1.8.06.56.04,1.12.14,1.68.3.8.4,1.76.36,2.88-.12.16-.16.42-.3.78-.42s.62-.3.78-.54c.48-.08.74-.34.78-.78.04-.44.14-.74.3-.9,1.04-1.28,1.74-2.58,2.1-3.9s.58-2.58.66-3.78Z"/>
      <path class="cls-1" d="M719.97,58.03c-.32,1.04-.42,2.06-.3,3.06.12,1,.1,2.02-.06,3.06-.08.56-.08,1.12,0,1.68.08.56.04,1.16-.12,1.8-.08.48-.1.98-.06,1.5.04.52.06,1.02.06,1.5-.08.32-.12.72-.12,1.2-.16.56-.26,1.1-.3,1.62-.04.52-.14,1.1-.3,1.74,0,.08-.02.18-.06.3-.04.12-.06.26-.06.42,0,.56-.32.84-.96.84-.08-.08-.28-.12-.6-.12-.56-.24-1.04-.28-1.44-.12-.4.16-.8.32-1.2.48l-.72.72c-.24.24-.48.52-.72.84-.88.48-1.7.62-2.46.42-.76-.2-1.54-.54-2.34-1.02-.48,0-.84.04-1.08.12h-.36c-.08-.08-.2-.12-.36-.12-.32-.24-.62-.48-.9-.72-.28-.24-.58-.48-.9-.72-.64-.64-.88-1.28-.72-1.92.08-.32.18-.62.3-.9.12-.28.14-.58.06-.9-.08-.4-.18-.8-.3-1.2-.12-.4-.18-.8-.18-1.2s.06-.8.18-1.2c.12-.4.22-.8.3-1.2-.16-.64-.4-1.28-.72-1.92-.32-.64-.56-1.32-.72-2.04-.08-.64-.18-1.3-.3-1.98-.12-.68-.18-1.34-.18-1.98-.08-.72-.14-1.42-.18-2.1-.04-.68-.06-1.42-.06-2.22-.16-.96-.56-1.72-1.2-2.28-.56-.64-1.04-1.24-1.44-1.8-.4-.56-.76-1.2-1.08-1.92-.4-.32-.92-.6-1.56-.84-.08-.16-.16-.32-.24-.48-.08-.16-.2-.28-.36-.36-.08-.08-.12-.18-.12-.3s-.04-.22-.12-.3l-.72-.72c-.32-.16-.64-.16-.96,0-.32.16-.6.24-.84.24-.32.08-.6.12-.84.12s-.56.04-.96.12c-.32.16-.58.34-.78.54-.2.2-.5.38-.9.54-.24.24-.52.42-.84.54-.32.12-.64.26-.96.42-.32.72-.36,1.4-.12,2.04.16.8.26,1.64.3,2.52.04.88.14,1.76.3,2.64.08.8,0,1.72-.24,2.76,0,.24-.04.5-.12.78-.08.28-.12.58-.12.9.08,1.28,0,2.54-.24,3.78-.24,1.24-.56,2.5-.96,3.78.08.8.16,1.58.24,2.34.08.76.16,1.54.24,2.34v2.52c0,1.04-.56,1.64-1.68,1.8h-2.52c-.8.08-1.58.16-2.34.24-.76.08-1.46.32-2.1.72-.32.08-.62.2-.9.36-.28.16-.62.32-1.02.48l-.84.84c-.16,0-.34.02-.54.06-.2.04-.38.02-.54-.06-.8-.4-1.56-.72-2.28-.96-.8-1.04-1.28-2.16-1.44-3.36-.16-1.2-.44-2.32-.84-3.36.08-.48.18-.94.3-1.38.12-.44.1-.86-.06-1.26-.08-.24-.12-.68-.12-1.32,0-.24.02-.46.06-.66.04-.2.02-.38-.06-.54-.24-1.52-.16-2.84.24-3.96.16-.72.12-1.48-.12-2.28-.32-1.44-.44-2.92-.36-4.44.24-1.28.2-2.56-.12-3.84-.24-.24-.24-.56,0-.96,0-.4.02-.82.06-1.26.04-.44.1-.82.18-1.14.08-.32.24-.58.48-.78.24-.2.44-.38.6-.54l.36-2.16c.16-.24.04-.64-.36-1.2-.08-.16-.2-.18-.36-.06-.16.12-.32.22-.48.3l-.12-.12c0-.88.02-1.7.06-2.46.04-.76.02-1.54-.06-2.34-.08-.32-.08-.6,0-.84.08-.24.12-.52.12-.84,0-.24-.04-.52-.12-.84-.08-.32-.12-.64-.12-.96v-.6c0-.24.04-.48.12-.72.08-.4.16-.8.24-1.2.08-.4.2-.84.36-1.32-.32-.64-.46-1.32-.42-2.04.04-.72-.02-1.48-.18-2.28-.08-.24-.06-.52.06-.84.12-.32.22-.68.3-1.08-.32-.72-.44-1.54-.36-2.46.08-.92.08-1.82,0-2.7.16-.48.2-.94.12-1.38-.08-.44-.12-.9-.12-1.38.08-.8.08-1.56,0-2.28-.08-.72-.04-1.44.12-2.16.08-.24.1-.44.06-.6-.04-.16-.06-.32-.06-.48-.16-1.52-.12-2.92.12-4.2.08-.24.12-.56.12-.96v-1.08c-.08-.32-.14-.6-.18-.84-.04-.24-.02-.52.06-.84.24-.48.34-.98.3-1.5-.04-.52.1-1.02.42-1.5.08-.16.12-.28.12-.36l.24-.12c0-.08.12-.12.36-.12.4-.16.78-.3,1.14-.42.36-.12.74-.22,1.14-.3.24.16.48.32.72.48.24.16.52.32.84.48h1.92c.16-.16.32-.28.48-.36.16-.08.28-.16.36-.24l1.2-.84c.32-.16.66-.26,1.02-.3.36-.04.66.06.9.3.72.48,1.42.88,2.1,1.2.68.32,1.38.52,2.1.6.4.64.7,1.24.9,1.8.2.56.42,1.16.66,1.8.24.8.6,1.72,1.08,2.76,0,.4-.14.72-.42.96-.28.24-.46.6-.54,1.08,0,.16.02.4.06.72.04.32.1.68.18,1.08,0,.32-.04.64-.12.96-.08.32-.08.68,0,1.08.16,1.28.2,2.56.12,3.84-.08,1.28-.2,2.52-.36,3.72v1.68c0,.8.2,1.6.6,2.4.32.32.62.66.9,1.02.28.36.54.74.78,1.14.48.48,1,.72,1.56.72,1.12,0,2.26.1,3.42.3,1.16.2,2.3.22,3.42.06.24-.08.44-.1.6-.06.16.04.36.06.6.06.24.16.54.28.9.36.36.08.7.16,1.02.24.88.16,1.24.68,1.08,1.56.16.08.28.16.36.24.16-.08.32-.12.48-.12s.28-.04.36-.12c1.04-.4,1.96-.32,2.76.24.48.4,1.04.7,1.68.9.64.2,1.24.62,1.8,1.26.56.96,1.28,1.86,2.16,2.7.88.84,1.76,1.74,2.64,2.7.16.24.36.46.6.66.24.2.44.38.6.54.72.72,1.12,1.44,1.2,2.16.24,1.12.52,2,.84,2.64.24.88.6,1.88,1.08,3v1.2c.08.32.16.66.24,1.02.08.36.12.74.12,1.14.08.96.16,1.92.24,2.88.08.96.16,1.92.24,2.88,0,.08.02.18.06.3.04.12.02.26-.06.42Z"/>
      <path class="cls-1" d="M795.56,28.87c.24,1.12.12,2.28-.36,3.48-.16.4-.3.82-.42,1.26-.12.44-.26.86-.42,1.26-.48,1.44-1.16,2.8-2.04,4.08-.64.96-1.24,1.92-1.8,2.88-.56.96-1.04,2-1.44,3.12-.16.4-.34.78-.54,1.14-.2.36-.38.74-.54,1.14-.08.16-.16.36-.24.6-.08.24-.2.44-.36.6-.08.24-.12.48-.12.72s-.08.44-.24.6c-.32.32-.66.68-1.02,1.08-.36.4-.66.84-.9,1.32-.32.64-.64,1.26-.96,1.86-.32.6-.76,1.1-1.32,1.5-.56.88-1.08,1.74-1.56,2.58-.48.84-.96,1.66-1.44,2.46-.16.8-.5,1.52-1.02,2.16-.52.64-.94,1.36-1.26,2.16,0,.24-.12.44-.36.6-.96.8-1.74,1.76-2.34,2.88-.6,1.12-1.3,2.2-2.1,3.24-.08.32-.18.62-.3.9-.12.28-.26.5-.42.66-.16.48-.34.94-.54,1.38-.2.44-.38.86-.54,1.26-.48.96-1,1.86-1.56,2.7-.56.84-1.28,1.58-2.16,2.22-.32.32-.6.62-.84.9-.24.28-.48.58-.72.9-.56.8-1.16,1.58-1.8,2.34-.64.76-1.24,1.54-1.8,2.34-1.28,1.84-2.84,3.56-4.68,5.16-.4.08-.78.08-1.14,0-.36-.08-.74-.04-1.14.12-.32-.16-.58-.34-.78-.54-.2-.2-.5-.38-.9-.54-.32,0-.62-.04-.9-.12-.28-.08-.62-.12-1.02-.12-.64-.16-1.12-.5-1.44-1.02-.32-.52-.72-.98-1.2-1.38-.8-.64-1.6-1.08-2.4-1.32-.48-.24-.84-.52-1.08-.84-.08-.4-.08-.96,0-1.68.08-.32.28-.52.6-.6.72-.56,1.24-1.04,1.56-1.44.32-.4.68-1,1.08-1.8.32-.88.64-1.48.96-1.8,1.2-1.28,2-2.52,2.4-3.72.4-.72.78-1.4,1.14-2.04.36-.64.7-1.32,1.02-2.04.4-.64.78-1.26,1.14-1.86.36-.6.78-1.22,1.26-1.86.08-.16.18-.3.3-.42.12-.12.22-.26.3-.42.4-.8.84-1.54,1.32-2.22.48-.68,1.04-1.3,1.68-1.86.4-.88.74-1.8,1.02-2.76.28-.96.74-1.8,1.38-2.52-.16-.32-.26-.56-.3-.72-.04-.16-.14-.28-.3-.36-.24-.4-.5-.72-.78-.96-.28-.24-.62-.52-1.02-.84-.08-.16-.22-.32-.42-.48-.2-.16-.38-.32-.54-.48-.64-1.04-1.46-1.98-2.46-2.82-1-.84-2.02-1.66-3.06-2.46-.24-.16-.5-.36-.78-.6-.28-.24-.58-.44-.9-.6-.32-.56-.68-1.14-1.08-1.74-.4-.6-.8-1.18-1.2-1.74-.32-.16-.64-.36-.96-.6-.32-.24-.6-.48-.84-.72-.32-.32-.54-.64-.66-.96-.12-.32-.26-.6-.42-.84.16-.32.1-.62-.18-.9-.28-.28-.38-.54-.3-.78-.32-.32-.54-.44-.66-.36-.12.08-.34-.04-.66-.36-.08-.08-.18-.18-.3-.3-.12-.12-.18-.26-.18-.42-.08-.56-.16-.96-.24-1.2-.08-.24-.04-.56.12-.96l-.6-.6c-.32,0-.46-.06-.42-.18.04-.12-.06-.22-.3-.3-.24,0-.64-.28-1.2-.84.16-.24.26-.44.3-.6.04-.16.1-.28.18-.36.16-.32.28-.52.36-.6,2.08-1.28,3.48-3.2,4.2-5.76.24-.32.5-.58.78-.78.28-.2.5-.46.66-.78.24-.24.46-.5.66-.78.2-.28.38-.5.54-.66.4-.24.74-.32,1.02-.24.28.08.54.2.78.36.64.56,1.26,1.14,1.86,1.74.6.6,1.26,1.22,1.98,1.86.96.72,1.92,1.5,2.88,2.34s1.88,1.7,2.76,2.58c.4.48.88.88,1.44,1.2.56.32,1.08.72,1.56,1.2,1.84,1.04,3.56,2.36,5.16,3.96.16.08.36.18.6.3s.48.14.72.06c.48-.24.84-.6,1.08-1.08.24-.48.52-.88.84-1.2s.52-.64.6-.96c.08-.16.14-.32.18-.48.04-.16.06-.32.06-.48.08-.64.26-1.18.54-1.62.28-.44.58-.94.9-1.5.56-.8,1-1.6,1.32-2.4.32-.88.62-1.46.9-1.74.28-.28.9-.66,1.86-1.14.16-.32.32-.64.48-.96.16-.32.32-.6.48-.84.4-.4.76-.8,1.08-1.2.32-.4.56-.84.72-1.32.64-1.04,1.44-1.68,2.4-1.92.48.08.92.22,1.32.42.4.2.72.58.96,1.14.4.48.86.86,1.38,1.14.52.28.94.66,1.26,1.14.48.24.94.28,1.38.12.44-.16.86-.16,1.26,0,.32.16.56.34.72.54.16.2.32.38.48.54,1.04.88,1.68,1.5,1.92,1.86.24.36.6,1.14,1.08,2.34Z"/>
    </g>
  </g>
</svg>